# xmcd
#
# Track frame offsets:
#	150
#	17658
#	35267
#	55917
#	71421
#	83073
#	99046
#	121548
#	141484
#	155729
#	176858
#	192730
#	205048
#	224885
#	245554
#	259982
#	270778
#	288672
#	307945
#	328827
#	356441
#
# Disc length: 4758 seconds
#
# Revision: 1
# Processed by: cddbd v1.5.2PL0 Copyright (c) Steve Scherf et al.
# Submitted via: audiograbber 1.83.01
#
DISCID=3c129415
DTITLE=Various Artist - TT208
DYEAR=1900
DGENRE=Country
TTITLE0=Willie Nelson - All Of Me
TTITLE1=Willie Nelson - Always On My Mind
TTITLE2=Willie Nelson - Angel Flying Too Close To The Ground
TTITLE3=Willie Nelson and Toby Keith - Beer For My Horses
TTITLE4=Willie Nelson - Blue Eyes Crying In The Rain
TTITLE5=Willie Nelson - Blue Skies
TTITLE6=Willie Nelson - The City Of New Orleans
TTITLE7=Willie Nelson - Georgia On My Mind
TTITLE8=The Highwaymen - Highwayman
TTITLE9=Willie Nelson - Last Thing I Need First Thing This Morning
TTITLE10=Willie Nelson - Living In The Promiseland
TTITLE11=Willie Nelson and Waylon Jennings - Mamas' Don't Let Your Babies
TTITLE12=Willie Nelson - Maria (Shut Up and Kiss Me)
TTITLE13=Willie Nelson and Lee Ann Womack - Mendocino County Line
TTITLE14=Willie Nelson - My Heros Have Always  Been Cowboys
TTITLE15=Willie Nelson - On The Road  Again
TTITLE16=Willie Nelson - Pancho and Lefty
TTITLE17=Willie Nelson - Seven Spanish Angels
TTITLE18=Willie Nelson - This Face
TTITLE19=Willie Nelson/ Julio Iglesias - To All The Girls I've Loved Before
TTITLE20=none - Data Track
EXTD=
EXTT0=
EXTT1=
EXTT2=
EXTT3=
EXTT4=
EXTT5=
EXTT6=
EXTT7=
EXTT8=
EXTT9=
EXTT10=
EXTT11=
EXTT12=
EXTT13=
EXTT14=
EXTT15=
EXTT16=
EXTT17=
EXTT18=
EXTT19=
EXTT20=
PLAYORDER=
